<?xml version="1.0" encoding="UTF-8" standalone="no"?>
<!DOCTYPE svg PUBLIC "-//W3C//DTD SVG 1.1//EN" "http://www.w3.org/Graphics/SVG/1.1/DTD/svg11.dtd">
<svg version="1.1" xmlns="http://www.w3.org/2000/svg" xmlns:xlink="http://www.w3.org/1999/xlink" preserveAspectRatio="xMidYMid meet" viewBox="0 0 400 155" width="400" height="155"><defs><path d="M25 8.79C21.69 8.79 19 11.47 19 14.79C19 18.1 21.69 20.79 25 20.79C28.31 20.79 31 18.1 31 14.79C31 11.47 28.31 8.79 25 8.79Z" id="b6ob06HXl"></path><path d="M33 22.79L29.58 19.37" id="d6iADm6hHr"></path><path d="M25 64.16C21.69 64.16 19 66.84 19 70.16C19 73.47 21.69 76.16 25 76.16C28.31 76.16 31 73.47 31 70.16C31 66.84 28.31 64.16 25 64.16Z" id="l8Tbn4TOA"></path><path d="M33 78.16L29.58 74.74" id="b9hGi0tPM"></path><path d="M376.72 68.41L388.72 80.41" id="aOROxkR9y"></path><path d="M388.72 68.41L376.72 80.41" id="a14BKNbVqZ"></path><path d="M376.72 13.04L388.72 25.04" id="bmZpdmKNh"></path><path d="M388.72 13.04L376.72 25.04" id="amBZVRdeu"></path><path d="M376.72 127.86L388.72 139.86" id="aaUsgVxPz"></path><path d="M388.72 127.86L376.72 139.86" id="d8H0vnkyon"></path><path d="M25 123.61C21.69 123.61 19 126.29 19 129.61C19 132.92 21.69 135.61 25 135.61C28.31 135.61 31 132.92 31 129.61C31 126.29 28.31 123.61 25 123.61Z" id="d4gXa6TxQ5"></path><path d="M33 137.61L29.58 134.19" id="f3NyiQToTc"></path></defs><g><g><g><use xlink:href="#b6ob06HXl" opacity="1" fill="#000000" fill-opacity="0"></use><g><use xlink:href="#b6ob06HXl" opacity="1" fill-opacity="0" stroke="#43b6e2" stroke-width="2" stroke-opacity="1"></use></g></g><g><use xlink:href="#d6iADm6hHr" opacity="1" fill="#000000" fill-opacity="0"></use><g><use xlink:href="#d6iADm6hHr" opacity="1" fill-opacity="0" stroke="#43b6e2" stroke-width="2" stroke-opacity="1"></use></g></g><g><use xlink:href="#l8Tbn4TOA" opacity="1" fill="#000000" fill-opacity="0"></use><g><use xlink:href="#l8Tbn4TOA" opacity="1" fill-opacity="0" stroke="#a5aaac" stroke-width="2" stroke-opacity="1"></use></g></g><g><use xlink:href="#b9hGi0tPM" opacity="1" fill="#000000" fill-opacity="0"></use><g><use xlink:href="#b9hGi0tPM" opacity="1" fill-opacity="0" stroke="#a5aaac" stroke-width="2" stroke-opacity="1"></use></g></g><g><use xlink:href="#aOROxkR9y" opacity="1" fill="#000000" fill-opacity="0"></use><g><use xlink:href="#aOROxkR9y" opacity="1" fill-opacity="0" stroke="#a5aaac" stroke-width="2" stroke-opacity="1"></use></g></g><g><use xlink:href="#a14BKNbVqZ" opacity="1" fill="#000000" fill-opacity="0"></use><g><use xlink:href="#a14BKNbVqZ" opacity="1" fill-opacity="0" stroke="#a5aaac" stroke-width="2" stroke-opacity="1"></use></g></g><g><use xlink:href="#bmZpdmKNh" opacity="1" fill="#000000" fill-opacity="0"></use><g><use xlink:href="#bmZpdmKNh" opacity="1" fill-opacity="0" stroke="#43b6e2" stroke-width="2" stroke-opacity="1"></use></g></g><g><use xlink:href="#amBZVRdeu" opacity="1" fill="#000000" fill-opacity="0"></use><g><use xlink:href="#amBZVRdeu" opacity="1" fill-opacity="0" stroke="#43b6e2" stroke-width="2" stroke-opacity="1"></use></g></g><g><use xlink:href="#aaUsgVxPz" opacity="1" fill="#000000" fill-opacity="0"></use><g><use xlink:href="#aaUsgVxPz" opacity="1" fill-opacity="0" stroke="#161f28" stroke-width="2" stroke-opacity="1"></use></g></g><g><use xlink:href="#d8H0vnkyon" opacity="1" fill="#000000" fill-opacity="0"></use><g><use xlink:href="#d8H0vnkyon" opacity="1" fill-opacity="0" stroke="#161f28" stroke-width="2" stroke-opacity="1"></use></g></g><g><use xlink:href="#d4gXa6TxQ5" opacity="1" fill="#000000" fill-opacity="0"></use><g><use xlink:href="#d4gXa6TxQ5" opacity="1" fill-opacity="0" stroke="#161f28" stroke-width="2" stroke-opacity="1"></use></g></g><g><use xlink:href="#f3NyiQToTc" opacity="1" fill="#000000" fill-opacity="0"></use><g><use xlink:href="#f3NyiQToTc" opacity="1" fill-opacity="0" stroke="#161f28" stroke-width="2" stroke-opacity="1"></use></g></g></g></g></svg>